HIERARCHY
ROOT Joint0
{
	OFFSET 0 0 0
	CHANNELS 6 Xposition Yposition Zposition Zrotation Xrotation Yrotation
	JOINT Joint1
	{
		OFFSET 0 0 0
		CHANNELS 6 Xposition Yposition Zposition Zrotation Xrotation Yrotation
	JOINT Joint2
	{
		OFFSET 0 0 0
		CHANNELS 6 Xposition Yposition Zposition Zrotation Xrotation Yrotation
	JOINT Joint3
	{
		OFFSET 0 0 0
		CHANNELS 6 Xposition Yposition Zposition Zrotation Xrotation Yrotation
	JOINT Joint4
	{
		OFFSET 0 0 0
		CHANNELS 6 Xposition Yposition Zposition Zrotation Xrotation Yrotation
	JOINT Joint5
	{
		OFFSET 0 0 0
		CHANNELS 6 Xposition Yposition Zposition Zrotation Xrotation Yrotation
	JOINT Joint6
	{
		OFFSET 0 0 0
		CHANNELS 6 Xposition Yposition Zposition Zrotation Xrotation Yrotation
	JOINT Joint7
	{
		OFFSET 0 0 0
		CHANNELS 6 Xposition Yposition Zposition Zrotation Xrotation Yrotation
	JOINT Joint8
	{
		OFFSET 0 0 0
		CHANNELS 6 Xposition Yposition Zposition Zrotation Xrotation Yrotation
	JOINT Joint9
	{
		OFFSET 0 0 0
		CHANNELS 6 Xposition Yposition Zposition Zrotation Xrotation Yrotation
	JOINT Joint10
	{
		OFFSET 0 0 0
		CHANNELS 6 Xposition Yposition Zposition Zrotation Xrotation Yrotation
	JOINT Joint11
	{
		OFFSET 0 0 0
		CHANNELS 6 Xposition Yposition Zposition Zrotation Xrotation Yrotation
	JOINT Joint12
	{
		OFFSET 0 0 0
		CHANNELS 6 Xposition Yposition Zposition Zrotation Xrotation Yrotation
	JOINT Joint13
	{
		OFFSET 0 0 0
		CHANNELS 6 Xposition Yposition Zposition Zrotation Xrotation Yrotation
	JOINT Joint14
	{
		OFFSET 0 0 0
		CHANNELS 6 Xposition Yposition Zposition Zrotation Xrotation Yrotation
	JOINT Joint15
	{
		OFFSET 0 0 0
		CHANNELS 6 Xposition Yposition Zposition Zrotation Xrotation Yrotation
	JOINT Joint16
	{
		OFFSET 0 0 0
		CHANNELS 6 Xposition Yposition Zposition Zrotation Xrotation Yrotation
	JOINT Joint17
	{
		OFFSET 0 0 0
		CHANNELS 6 Xposition Yposition Zposition Zrotation Xrotation Yrotation
	JOINT Joint18
	{
		OFFSET 0 0 0
		CHANNELS 6 Xposition Yposition Zposition Zrotation Xrotation Yrotation
	JOINT Joint19
	{
		OFFSET 0 0 0
		CHANNELS 6 Xposition Yposition Zposition Zrotation Xrotation Yrotation
	JOINT Joint20
	{
		OFFSET 0 0 0
		CHANNELS 6 Xposition Yposition Zposition Zrotation Xrotation Yrotation
	JOINT Joint21
	{
		OFFSET 0 0 0
		CHANNELS 6 Xposition Yposition Zposition Zrotation Xrotation Yrotation
	JOINT Joint22
	{
		OFFSET 0 0 0
		CHANNELS 6 Xposition Yposition Zposition Zrotation Xrotation Yrotation
	JOINT Joint23
	{
		OFFSET 0 0 0
		CHANNELS 6 Xposition Yposition Zposition Zrotation Xrotation Yrotation
	JOINT Joint24
	{
		OFFSET 0 0 0
		CHANNELS 6 Xposition Yposition Zposition Zrotation Xrotation Yrotation
	JOINT Joint25
	{
		OFFSET 0 0 0
		CHANNELS 6 Xposition Yposition Zposition Zrotation Xrotation Yrotation
	JOINT Joint26
	{
		OFFSET 0 0 0
		CHANNELS 6 Xposition Yposition Zposition Zrotation Xrotation Yrotation
	JOINT Joint27
	{
		OFFSET 0 0 0
		CHANNELS 6 Xposition Yposition Zposition Zrotation Xrotation Yrotation
	JOINT Joint28
	{
		OFFSET 0 0 0
		CHANNELS 6 Xposition Yposition Zposition Zrotation Xrotation Yrotation
	JOINT Joint29
	{
		OFFSET 0 0 0
		CHANNELS 6 Xposition Yposition Zposition Zrotation Xrotation Yrotation
	JOINT Joint30
	{
		OFFSET 0 0 0
		CHANNELS 6 Xposition Yposition Zposition Zrotation Xrotation Yrotation
	JOINT Joint31
	{
		OFFSET 0 0 0
		CHANNELS 6 Xposition Yposition Zposition Zrotation Xrotation Yrotation
	JOINT Joint32
	{
		OFFSET 0 0 0
		CHANNELS 6 Xposition Yposition Zposition Zrotation Xrotation Yrotation
	}
	}
	}
	}
	}
	}
	}
	}
	}
	}
	}
	}
	}
	}
	}
	}
	}
	}
	}
	}
	}
	}
	}
	}
	}
	}
	}
	}
	}
	}
	}
	}
}
MOTION
Frames: 4
Frame Time: 0.0333333
-2.763815 -18.314144 -73.037863 0.000000 0.000000 0.000000 -1.255451 -22.247949 -72.162825 0.000000 0.000000 0.000000 -1.216471 -21.624716 -71.070755 0.000000 0.000000 0.000000 -1.424796 -21.775314 -71.291864 0.000000 0.000000 0.000000 -3.555903 -21.885440 -73.214996 0.000000 0.000000 0.000000 -2.935379 -21.886751 -74.790031 0.000000 0.000000 0.000000 -2.428604 -20.899098 -72.343934 0.000000 0.000000 0.000000 5.841386 -20.625901 -60.331094 0.000000 0.000000 0.000000 -8.677827 -14.977263 -59.978032 0.000000 0.000000 0.000000 1.167147 -16.964924 -67.490321 0.000000 0.000000 0.000000 -1.679094 -13.773698 -70.168364 0.000000 0.000000 0.000000 17.481501 -9.149030 -40.996820 0.000000 0.000000 0.000000 -16.079581 -14.430162 -35.650748 0.000000 0.000000 0.000000 25.933152 13.591886 -40.480694 0.000000 0.000000 0.000000 -22.758353 15.483463 -40.573624 0.000000 0.000000 0.000000 30.034512 37.532923 -37.244919 0.000000 0.000000 0.000000 -27.621585 36.489162 -48.121652 0.000000 0.000000 0.000000 31.390643 41.397005 -38.070190 0.000000 0.000000 0.000000 -26.626021 39.911589 -54.237270 0.000000 0.000000 0.000000 25.728938 41.855502 -40.890130 0.000000 0.000000 0.000000 -20.701781 37.404549 -56.135958 0.000000 0.000000 0.000000 28.058311 41.047359 -38.377023 0.000000 0.000000 0.000000 -25.034159 37.629861 -50.410908 0.000000 0.000000 0.000000 10.064887 0.340288 3.562951 0.000000 0.000000 0.000000 -10.036303 -0.592699 -3.365659 0.000000 0.000000 0.000000 17.657375 25.594264 -29.944661 0.000000 0.000000 0.000000 -12.625705 15.760559 -30.526057 0.000000 0.000000 0.000000 15.181465 59.269691 -7.068790 0.000000 0.000000 0.000000 -14.200670 55.114681 -8.329211 0.000000 0.000000 0.000000 13.236319 62.349802 -4.527086 0.000000 0.000000 0.000000 -15.104529 58.247745 -9.838060 0.000000 0.000000 0.000000 14.045222 65.699381 -15.414323 0.000000 0.000000 0.000000 -17.774767 59.677267 -22.539362 0.000000 0.000000 0.000000
-2.728634 -18.313470 -72.999901 0.000000 0.000000 0.000000 -1.231593 -22.249094 -72.158742 0.000000 0.000000 0.000000 -1.181114 -21.626280 -71.065313 0.000000 0.000000 0.000000 -1.408978 -21.774140 -71.281523 0.000000 0.000000 0.000000 -3.502323 -21.883164 -73.185074 0.000000 0.000000 0.000000 -2.876428 -21.886855 -74.735516 0.000000 0.000000 0.000000 -2.351957 -20.895624 -72.303683 0.000000 0.000000 0.000000 5.857905 -20.571180 -60.341382 0.000000 0.000000 0.000000 -8.618990 -14.967254 -59.856915 0.000000 0.000000 0.000000 1.234669 -16.948983 -67.428756 0.000000 0.000000 0.000000 -1.567352 -13.767502 -69.992679 0.000000 0.000000 0.000000 17.485599 -9.159825 -40.647948 0.000000 0.000000 0.000000 -15.988803 -14.253569 -35.252371 0.000000 0.000000 0.000000 25.753528 13.357684 -38.795471 0.000000 0.000000 0.000000 -22.739907 15.821707 -38.539612 0.000000 0.000000 0.000000 30.063358 37.521866 -33.862817 0.000000 0.000000 0.000000 -27.700546 36.770350 -43.825439 0.000000 0.000000 0.000000 31.657934 41.395494 -34.165177 0.000000 0.000000 0.000000 -26.626143 40.138134 -49.774843 0.000000 0.000000 0.000000 26.085624 41.879854 -37.095231 0.000000 0.000000 0.000000 -20.583522 37.739557 -51.074088 0.000000 0.000000 0.000000 28.114024 41.068333 -34.914276 0.000000 0.000000 0.000000 -25.050622 37.950987 -45.949349 0.000000 0.000000 0.000000 10.117847 0.325371 3.559511 0.000000 0.000000 0.000000 -10.100544 -0.574374 -3.360941 0.000000 0.000000 0.000000 18.842632 25.583184 -30.554673 0.000000 0.000000 0.000000 -12.170901 15.791269 -30.552498 0.000000 0.000000 0.000000 15.822440 57.381177 -4.521465 0.000000 0.000000 0.000000 -13.044567 54.508829 -3.827075 0.000000 0.000000 0.000000 13.714540 60.172224 -1.594036 0.000000 0.000000 0.000000 -13.970155 57.634950 -4.562873 0.000000 0.000000 0.000000 13.114631 64.370686 -12.241218 0.000000 0.000000 0.000000 -17.023067 58.556831 -16.961765 0.000000 0.000000 0.000000
-2.724868 -18.330970 -72.996920 0.000000 0.000000 0.000000 -1.229422 -22.276966 -72.161853 0.000000 0.000000 0.000000 -1.174653 -21.653193 -71.067131 0.000000 0.000000 0.000000 -1.408770 -21.789218 -71.281564 0.000000 0.000000 0.000000 -3.488855 -21.892680 -73.180902 0.000000 0.000000 0.000000 -2.858005 -21.907295 -74.722534 0.000000 0.000000 0.000000 -2.326024 -20.906472 -72.294843 0.000000 0.000000 0.000000 5.859755 -20.531508 -60.385197 0.000000 0.000000 0.000000 -8.588861 -14.962703 -59.804314 0.000000 0.000000 0.000000 1.246645 -16.948062 -67.422658 0.000000 0.000000 0.000000 -1.528773 -13.770008 -69.944823 0.000000 0.000000 0.000000 17.470179 -9.162477 -40.599072 0.000000 0.000000 0.000000 -15.925731 -14.058408 -35.033387 0.000000 0.000000 0.000000 25.586402 13.039272 -38.420576 0.000000 0.000000 0.000000 -22.654332 16.214558 -37.915814 0.000000 0.000000 0.000000 30.043158 37.456498 -33.005482 0.000000 0.000000 0.000000 -27.973706 37.070504 -42.695785 0.000000 0.000000 0.000000 31.687561 41.367409 -33.292389 0.000000 0.000000 0.000000 -26.828194 40.379581 -48.552099 0.000000 0.000000 0.000000 26.107663 41.881654 -36.211351 0.000000 0.000000 0.000000 -20.694534 38.091123 -49.832854 0.000000 0.000000 0.000000 28.098500 41.066873 -34.059891 0.000000 0.000000 0.000000 -25.291419 38.294891 -44.844490 0.000000 0.000000 0.000000 10.138301 0.314004 3.556827 0.000000 0.000000 0.000000 -10.127548 -0.560745 -3.357583 0.000000 0.000000 0.000000 19.345796 25.598136 -30.909392 0.000000 0.000000 0.000000 -11.847605 15.817094 -30.560592 0.000000 0.000000 0.000000 15.914622 56.975865 -3.916614 0.000000 0.000000 0.000000 -12.708610 54.351020 -3.102389 0.000000 0.000000 0.000000 13.758728 59.713531 -0.958065 0.000000 0.000000 0.000000 -13.670711 57.488817 -3.828081 0.000000 0.000000 0.000000 12.463049 64.098847 -11.577179 0.000000 0.000000 0.000000 -16.861430 58.192074 -16.260405 0.000000 0.000000 0.000000
-2.585163 -18.527879 -72.979265 0.000000 0.000000 0.000000 -1.160887 -22.505267 -72.155815 0.000000 0.000000 0.000000 -1.093791 -21.897911 -71.059865 0.000000 0.000000 0.000000 -1.347415 -21.997565 -71.267241 0.000000 0.000000 0.000000 -3.396821 -22.045635 -73.169076 0.000000 0.000000 0.000000 -2.766434 -22.076988 -74.696618 0.000000 0.000000 0.000000 -2.222171 -21.052963 -72.277302 0.000000 0.000000 0.000000 5.869101 -20.680758 -60.347694 0.000000 0.000000 0.000000 -8.586244 -14.995152 -59.745300 0.000000 0.000000 0.000000 1.410597 -17.096406 -67.358816 0.000000 0.000000 0.000000 -1.366971 -13.891214 -69.857401 0.000000 0.000000 0.000000 17.470457 -9.375032 -40.328485 0.000000 0.000000 0.000000 -15.909745 -14.021841 -34.683120 0.000000 0.000000 0.000000 25.506166 12.615386 -37.640786 0.000000 0.000000 0.000000 -22.563179 16.212781 -36.870357 0.000000 0.000000 0.000000 30.143866 37.214401 -31.965646 0.000000 0.000000 0.000000 -27.971008 37.060529 -41.434127 0.000000 0.000000 0.000000 32.023898 41.136882 -32.080939 0.000000 0.000000 0.000000 -26.794139 40.332526 -47.208995 0.000000 0.000000 0.000000 26.532203 41.787839 -35.019448 0.000000 0.000000 0.000000 -20.633787 38.070709 -48.514414 0.000000 0.000000 0.000000 28.253856 40.953293 -32.993302 0.000000 0.000000 0.000000 -25.286523 38.280076 -43.578446 0.000000 0.000000 0.000000 10.192900 0.298669 3.556851 0.000000 0.000000 0.000000 -10.183201 -0.542271 -3.357260 0.000000 0.000000 0.000000 19.656292 25.570810 -31.164634 0.000000 0.000000 0.000000 -11.518348 15.974219 -30.962723 0.000000 0.000000 0.000000 15.900694 56.643766 -3.481466 0.000000 0.000000 0.000000 -12.272161 53.831893 -2.433807 0.000000 0.000000 0.000000 13.742514 59.399927 -0.461061 0.000000 0.000000 0.000000 -13.238432 56.897950 -2.994212 0.000000 0.000000 0.000000 11.928864 64.114958 -11.082850 0.000000 0.000000 0.000000 -16.212089 57.928187 -15.331087 0.000000 0.000000 0.000000
